<?xml version="1.0" standalone="no"?>
<!DOCTYPE svg PUBLIC "-//W3C//DTD SVG 20010904//EN"
 "http://www.w3.org/TR/2001/REC-SVG-20010904/DTD/svg10.dtd">
<svg version="1.0" xmlns="http://www.w3.org/2000/svg"
 width="1007.000000pt" height="1280.000000pt" viewBox="0 0 1007.000000 1280.000000"
 preserveAspectRatio="xMidYMid meet">
<metadata>
Created by potrace 1.15, written by Peter Selinger 2001-2017
</metadata>
<g transform="translate(0.000000,1280.000000) scale(0.100000,-0.100000)"
fill="#000000" stroke="none">
<path d="M8580 12725 c-1345 -100 -1657 -123 -2920 -215 -602 -44 -1279 -93
-1505 -110 -225 -17 -903 -66 -1505 -110 -1234 -90 -1831 -134 -2160 -158
l-225 -17 -22 -240 c-180 -1929 -269 -3544 -234 -4240 29 -574 91 -1009 325
-2280 240 -1307 273 -1728 201 -2565 -58 -668 -211 -1713 -373 -2552 l-28
-146 90 -6 c50 -3 732 -10 1516 -16 784 -6 1898 -15 2475 -20 578 -5 1572 -14
2210 -20 638 -5 1668 -15 2289 -21 621 -5 1132 -7 1136 -2 11 13 85 737 130
1268 23 276 54 722 71 1040 17 295 18 1061 1 1290 -36 506 -72 872 -197 2005
-168 1523 -205 1952 -225 2595 -15 460 0 1340 40 2355 26 667 78 1728 96 1973
4 64 3 77 -9 77 -18 0 -20 -12 -47 -253 -173 -1537 -283 -2798 -321 -3682 -14
-327 -7 -953 15 -1250 33 -451 81 -942 186 -1880 112 -1004 143 -1318 182
-1800 20 -242 16 -973 -5 -1260 -36 -476 -97 -1036 -172 -1580 -40 -294 -83
-567 -90 -573 -3 -3 -1063 0 -2357 7 -4732 23 -6733 33 -6734 35 0 0 25 132
57 291 156 776 271 1526 328 2130 23 243 31 402 31 652 0 474 -43 864 -250
2273 -229 1556 -259 1988 -230 3265 11 476 32 1086 55 1610 31 691 61 1244 68
1251 2 2 453 49 1002 104 550 55 1311 132 1690 170 380 38 1118 112 1640 165
523 53 1238 125 1590 160 352 35 1203 121 1890 190 1453 146 1345 134 1345
151 0 18 92 23 -1050 -61z"/>
<path d="M6151 11304 c-140 -79 -255 -144 -256 -144 -1 0 -43 47 -93 104 l-92
103 -133 7 c-72 3 -186 9 -252 12 l-120 6 -265 -191 c-145 -105 -268 -191
-273 -191 -4 0 -111 23 -237 50 -126 28 -235 50 -243 50 -8 0 -32 -13 -53 -28
-21 -15 -109 -76 -195 -134 l-156 -107 -163 257 c-90 141 -168 262 -174 269
-8 9 -60 -66 -206 -297 -107 -170 -198 -306 -201 -302 -3 4 -29 115 -58 247
-63 289 -59 275 -76 275 -17 0 -13 14 -106 -350 -94 -364 -91 -393 15 -182
l69 137 16 -35 c93 -204 153 -322 160 -314 4 5 84 119 176 254 93 135 176 255
186 268 17 22 18 21 164 -208 95 -149 151 -228 158 -223 7 4 113 80 236 170
123 90 231 163 240 163 9 0 130 -23 269 -51 161 -32 258 -47 265 -41 7 5 116
95 244 200 198 164 237 192 265 192 18 0 109 -9 202 -19 l168 -19 108 -107
109 -108 300 171 301 172 565 0 c480 0 565 2 565 14 0 11 -21 16 -82 20 -171
13 -982 56 -1036 55 -54 -1 -70 -8 -311 -145z"/>
<path d="M8120 9653 c-58 -1 -512 -12 -1010 -23 -498 -11 -1096 -24 -1330 -30
-1367 -32 -2889 -66 -3580 -80 -278 -6 -556 -13 -617 -16 l-113 -6 0 -109 c0
-60 2 -109 5 -109 3 0 274 13 603 30 328 16 1502 75 2607 130 1106 55 2414
120 2907 145 494 25 913 45 933 45 24 0 35 4 35 15 0 15 -97 17 -440 8z"/>
<path d="M7555 8779 c-442 -11 -1083 -26 -2560 -59 -726 -16 -1522 -34 -1770
-40 -1103 -25 -1297 -30 -1565 -35 -157 -3 -340 -8 -407 -11 l-123 -6 0 -110
0 -110 98 6 c53 4 867 45 1807 91 941 47 2475 123 3410 170 936 47 1715 85
1733 85 22 0 32 5 32 15 0 17 -119 18 -655 4z"/>
<path d="M7765 7693 c-44 -1 -300 -7 -570 -13 -269 -6 -683 -15 -920 -20 -800
-19 -3937 -89 -4460 -100 -286 -6 -557 -13 -602 -16 l-83 -6 0 -110 0 -110 87
6 c49 4 225 13 393 21 168 8 982 49 1810 90 828 41 2230 111 3115 155 886 44
1625 81 1644 82 19 2 36 9 39 16 4 12 -185 14 -453 5z"/>
<path d="M7640 6479 c-367 -9 -999 -24 -2130 -49 -925 -21 -1510 -34 -2190
-50 -228 -5 -840 -19 -1360 -31 -520 -12 -946 -22 -947 -23 -1 0 -5 -49 -9
-108 l-7 -108 52 0 c29 0 1136 54 2459 120 1324 66 2864 143 3422 170 1178 58
1160 57 1160 76 0 16 26 15 -450 3z"/>
<path d="M7690 5059 c-162 -4 -513 -12 -780 -18 -267 -6 -676 -16 -910 -21
-644 -16 -3916 -89 -4235 -95 -154 -3 -322 -8 -372 -11 l-93 -6 0 -110 0 -110
87 6 c49 4 495 27 993 51 498 25 1720 85 2715 135 996 49 2130 106 2520 125
833 41 767 37 773 53 4 14 -193 14 -698 1z"/>
<path d="M7615 3779 c-165 -4 -518 -12 -785 -18 -267 -6 -676 -16 -910 -21
-234 -6 -825 -19 -1315 -30 -870 -19 -1362 -31 -2190 -50 -225 -5 -549 -12
-720 -15 -170 -3 -346 -8 -391 -11 l-81 -6 -6 -106 c-3 -59 -4 -108 -3 -109 1
-2 630 29 1397 67 4127 206 5611 280 5648 280 30 0 41 4 41 15 0 17 -141 18
-685 4z"/>
<path d="M8400 2613 c-58 -2 -512 -12 -1010 -23 -498 -11 -1096 -24 -1330 -30
-805 -19 -1327 -30 -2200 -50 -481 -11 -1091 -25 -1355 -31 -264 -6 -613 -14
-775 -17 l-295 -7 -3 -112 -3 -113 73 6 c40 3 750 38 1578 79 828 41 2317 115
3310 165 993 49 1873 93 1957 96 83 4 158 11 165 15 27 17 -10 24 -112 22z"/>
<path d="M6912 1900 c-33 -32 -64 -115 -77 -203 -6 -42 -16 -55 -101 -136
-102 -100 -159 -135 -175 -111 -11 18 -3 60 23 123 21 49 20 64 -6 54 -19 -8
-56 -109 -56 -155 0 -101 85 -80 235 60 l70 65 0 -78 c1 -61 5 -82 20 -98 35
-40 90 -20 184 66 l61 55 15 -39 c23 -57 30 -67 58 -83 24 -13 33 -12 110 13
46 15 109 42 140 61 67 41 157 76 193 76 14 0 39 -7 57 -16 28 -15 51 -16 222
-6 104 6 215 9 246 6 44 -5 66 -2 104 15 65 29 81 27 126 -14 46 -42 81 -45
142 -13 31 16 61 22 117 23 42 0 81 4 88 9 26 16 -2 26 -73 26 -58 0 -89 -6
-140 -27 l-65 -27 -33 32 c-50 49 -87 58 -140 34 -66 -29 -103 -35 -141 -22
-25 8 -56 8 -113 1 -43 -6 -128 -12 -188 -13 -92 -3 -118 0 -153 16 l-43 20
-72 -23 c-40 -13 -101 -41 -137 -62 -73 -43 -169 -79 -212 -79 -23 0 -31 7
-44 38 -31 73 -40 87 -57 90 -9 2 -45 -24 -86 -62 -127 -119 -155 -111 -149
41 4 91 4 91 45 136 55 60 105 159 101 200 -3 28 -7 32 -34 35 -24 2 -39 -4
-62 -28z m58 -20 c0 -32 -75 -170 -93 -170 -14 0 28 122 55 163 23 32 38 35
38 7z"/>
<path d="M2830 1736 c-20 -13 -48 -41 -62 -62 -41 -59 -103 -201 -123 -279
-21 -85 -66 -135 -122 -135 -32 0 -45 -14 -20 -23 15 -5 -92 -45 -159 -60 -45
-9 -55 -8 -84 9 -19 11 -39 33 -46 51 l-13 31 63 40 c67 44 101 86 137 167 25
58 30 134 10 158 -23 28 -75 21 -116 -15 -77 -67 -118 -151 -131 -269 -7 -65
-25 -79 -95 -79 -78 0 -105 57 -78 168 13 54 78 199 108 241 27 37 26 43 -1
39 -18 -2 -35 -27 -78 -113 -77 -153 -98 -252 -65 -315 9 -17 20 -30 26 -30 6
0 8 -7 5 -16 -5 -14 3 -16 56 -14 119 4 126 3 143 -30 31 -61 113 -76 223 -41
61 19 186 83 197 101 3 6 11 10 16 10 6 0 7 -5 4 -10 -4 -6 4 -19 17 -30 31
-26 94 -25 160 1 29 12 70 21 91 20 21 -1 37 3 37 9 0 7 -9 9 -22 5 -15 -5
-19 -4 -13 2 20 19 294 183 305 183 7 0 10 -17 8 -47 -4 -60 16 -67 65 -24 20
18 46 31 61 31 15 0 45 10 68 21 23 12 60 27 82 33 22 6 41 17 44 24 6 20 -49
14 -106 -13 -30 -14 -69 -25 -87 -25 -20 0 -42 -9 -59 -25 -15 -14 -28 -25
-29 -25 -2 0 -1 18 1 40 3 30 0 41 -12 46 -27 10 -58 -3 -166 -73 -139 -89
-264 -153 -300 -153 -17 0 -30 -4 -30 -10 0 -14 -43 -13 -58 2 -19 19 -14 63
8 83 62 56 203 319 204 380 1 49 -16 55 -64 21z m-13 -129 c-57 -117 -140
-245 -131 -202 18 82 96 237 147 293 37 40 31 4 -16 -91z m-437 -2 c16 -19 6
-73 -24 -140 -30 -65 -64 -104 -116 -134 l-43 -24 7 51 c16 123 96 255 157
261 4 1 12 -6 19 -14z"/>
<path d="M8635 1360 c-4 -6 8 -10 29 -10 20 0 36 5 36 10 0 6 -13 10 -29 10
-17 0 -33 -4 -36 -10z"/>
<path d="M8150 1350 c-24 -8 -23 -8 8 -9 17 -1 32 4 32 9 0 11 -5 11 -40 0z"/>
<path d="M8255 1350 c-4 -6 8 -10 29 -10 20 0 36 5 36 10 0 6 -13 10 -29 10
-17 0 -33 -4 -36 -10z"/>
<path d="M8380 1350 c0 -5 14 -10 30 -10 17 0 30 5 30 10 0 6 -13 10 -30 10
-16 0 -30 -4 -30 -10z"/>
<path d="M8523 1353 c9 -2 25 -2 35 0 9 3 1 5 -18 5 -19 0 -27 -2 -17 -5z"/>
<path d="M7645 1340 l-30 -8 33 -1 c17 0 32 4 32 9 0 6 -1 9 -2 9 -2 -1 -16
-5 -33 -9z"/>
<path d="M7750 1340 c0 -5 14 -10 30 -10 17 0 30 5 30 10 0 6 -13 10 -30 10
-16 0 -30 -4 -30 -10z"/>
<path d="M7870 1340 c0 -5 13 -10 29 -10 17 0 33 5 36 10 4 6 -8 10 -29 10
-20 0 -36 -4 -36 -10z"/>
<path d="M8013 1343 c9 -2 25 -2 35 0 9 3 1 5 -18 5 -19 0 -27 -2 -17 -5z"/>
<path d="M7240 1330 c0 -5 14 -10 30 -10 17 0 30 5 30 10 0 6 -13 10 -30 10
-16 0 -30 -4 -30 -10z"/>
<path d="M7370 1330 c0 -5 14 -10 30 -10 17 0 30 5 30 10 0 6 -13 10 -30 10
-16 0 -30 -4 -30 -10z"/>
<path d="M7494 1332 c5 -8 66 -4 66 4 0 2 -16 4 -36 4 -19 0 -33 -4 -30 -8z"/>
<path d="M6735 1320 c-4 -6 7 -10 24 -10 17 0 31 5 31 10 0 6 -11 10 -24 10
-14 0 -28 -4 -31 -10z"/>
<path d="M6860 1320 c0 -5 14 -10 30 -10 17 0 30 5 30 10 0 6 -13 10 -30 10
-16 0 -30 -4 -30 -10z"/>
<path d="M6985 1320 c3 -5 17 -10 30 -10 13 0 27 5 30 10 4 6 -8 10 -30 10
-22 0 -34 -4 -30 -10z"/>
<path d="M7128 1323 c12 -2 30 -2 40 0 9 3 -1 5 -23 4 -22 0 -30 -2 -17 -4z"/>
<path d="M6480 1310 c0 -5 14 -10 30 -10 17 0 30 5 30 10 0 6 -13 10 -30 10
-16 0 -30 -4 -30 -10z"/>
<path d="M6618 1313 c12 -2 30 -2 40 0 9 3 -1 5 -23 4 -22 0 -30 -2 -17 -4z"/>
<path d="M3380 1270 c0 -5 14 -10 30 -10 17 0 30 5 30 10 0 6 -13 10 -30 10
-16 0 -30 -4 -30 -10z"/>
<path d="M3510 1270 c0 -5 14 -10 30 -10 17 0 30 5 30 10 0 6 -13 10 -30 10
-16 0 -30 -4 -30 -10z"/>
<path d="M3634 1272 c5 -8 66 -4 66 4 0 2 -16 4 -36 4 -19 0 -33 -4 -30 -8z"/>
<path d="M3773 1273 c9 -2 25 -2 35 0 9 3 1 5 -18 5 -19 0 -27 -2 -17 -5z"/>
<path d="M3000 1260 c0 -5 14 -10 30 -10 17 0 30 5 30 10 0 6 -13 10 -30 10
-16 0 -30 -4 -30 -10z"/>
<path d="M3125 1260 c3 -5 17 -10 30 -10 13 0 27 5 30 10 4 6 -8 10 -30 10
-22 0 -34 -4 -30 -10z"/>
<path d="M3268 1263 c12 -2 30 -2 40 0 9 3 -1 5 -23 4 -22 0 -30 -2 -17 -4z"/>
<path d="M2240 1240 c0 -6 11 -8 28 -4 39 10 40 14 4 14 -18 0 -32 -5 -32 -10z"/>
<path d="M2378 1243 c12 -2 30 -2 40 0 9 3 -1 5 -23 4 -22 0 -30 -2 -17 -4z"/>
<path d="M1600 1230 c0 -5 13 -10 29 -10 17 0 33 5 36 10 4 6 -8 10 -29 10
-20 0 -36 -4 -36 -10z"/>
<path d="M1730 1230 c0 -6 14 -9 30 -8 17 1 30 6 30 10 0 4 -13 8 -30 8 -16 0
-30 -5 -30 -10z"/>
<path d="M1868 1233 c12 -2 30 -2 40 0 9 3 -1 5 -23 4 -22 0 -30 -2 -17 -4z"/>
</g>
</svg>
