<?xml version="1.0" standalone="no"?>
<!DOCTYPE svg PUBLIC "-//W3C//DTD SVG 20010904//EN"
 "http://www.w3.org/TR/2001/REC-SVG-20010904/DTD/svg10.dtd">
<svg version="1.0" xmlns="http://www.w3.org/2000/svg"
 width="1280.000000pt" height="1280.000000pt" viewBox="0 0 1280.000000 1280.000000"
 preserveAspectRatio="xMidYMid meet">
<metadata>
Created by potrace 1.15, written by Peter Selinger 2001-2017
</metadata>
<g transform="translate(0.000000,1280.000000) scale(0.100000,-0.100000)"
fill="#000000" stroke="none">
<path d="M3130 6490 l0 -4240 2145 0 2145 0 0 325 0 325 -1820 0 -1820 0 0
3590 0 3590 2620 0 2620 0 0 -3590 0 -3590 -300 0 -300 0 0 -325 0 -325 625 0
625 0 0 4240 0 4240 -3270 0 -3270 0 0 -4240z"/>
<path d="M4380 9270 l0 -190 2020 0 2020 0 0 190 0 190 -2020 0 -2020 0 0
-190z"/>
<path d="M4380 8315 l0 -195 2020 0 2020 0 0 195 0 195 -2020 0 -2020 0 0
-195z"/>
<path d="M4380 7355 l0 -195 2020 0 2020 0 0 195 0 195 -2020 0 -2020 0 0
-195z"/>
<path d="M4380 6400 l0 -190 2020 0 2020 0 0 190 0 190 -2020 0 -2020 0 0
-190z"/>
<path d="M4380 5445 l0 -195 2020 0 2020 0 0 195 0 195 -2020 0 -2020 0 0
-195z"/>
<path d="M7903 4864 l-92 -43 -88 19 c-48 11 -95 20 -103 20 -8 0 -43 -35 -77
-78 l-63 -78 -100 -23 c-92 -21 -101 -25 -106 -49 -8 -37 -24 -100 -35 -143
-7 -27 -27 -50 -87 -98 l-79 -64 21 -101 22 -101 -43 -93 -43 -92 65 -86 65
-85 0 -100 0 -99 90 -45 90 -45 39 -78 40 -77 1 173 0 172 -35 70 c-86 171
-87 376 -2 548 39 80 145 195 221 241 110 66 177 85 311 85 147 1 231 -23 342
-96 92 -62 154 -132 204 -233 90 -182 90 -358 -1 -542 l-40 -81 0 -135 0 -135
43 10 c23 6 46 14 50 18 5 4 15 34 23 66 8 32 20 76 25 96 7 28 27 51 88 101
l78 65 -20 100 -21 100 39 88 c22 48 41 90 43 94 1 4 -25 42 -59 84 -33 43
-63 86 -64 95 -2 9 -4 57 -4 106 l-1 90 -92 47 -93 46 -45 91 -44 91 -101 0
-102 0 -83 65 c-46 36 -84 65 -84 64 -1 0 -42 -20 -93 -45z"/>
<path d="M4380 4485 l0 -195 1155 0 1155 0 0 195 0 195 -1155 0 -1155 0 0
-195z"/>
<path d="M7800 4504 c-93 -25 -162 -64 -231 -133 -113 -112 -154 -222 -147
-385 5 -104 27 -178 68 -237 20 -26 20 -59 22 -1537 l3 -1510 200 144 c109 79
203 144 207 144 5 0 96 -63 202 -140 107 -77 197 -140 200 -140 3 0 6 673 6
1496 l0 1496 41 83 c76 153 77 302 3 454 -103 209 -352 324 -574 265z"/>
</g>
</svg>
